<?xml version="1.0" encoding="UTF-8" standalone="no"?>
<svg
   width="184.12479mm"
   height="179.6636mm"
   viewBox="0 0 184.12479 179.6636"
   version="1.1"
   id="svg1"
   xmlns="http://www.w3.org/2000/svg"
   xmlns:svg="http://www.w3.org/2000/svg">
  <defs
     id="defs1" />
  <g
     id="layer1"
     transform="translate(-9.6013395,-44.008159)">
    <path
       style="fill:#000000;stroke-width:0.264583"
       id="path1"
       d="M 120.79575,186.70822 C 116.3856,190.4749 67.360988,160.8338 61.579102,161.28888 55.797216,161.74397 12.013577,198.68987 7.0684412,195.65954 2.1233053,192.6292 15.164229,136.84442 12.944717,131.48615 10.725205,126.12788 -37.94233,95.904074 -36.588439,90.264545 -35.234549,84.625016 21.849797,79.789226 26.259949,76.022548 30.670102,72.25587 44.37555,16.630625 50.157436,16.175541 c 5.781886,-0.455084 28.021029,52.341014 32.966165,55.371351 4.945135,3.030336 62.083099,-1.124154 64.302619,4.234118 2.21951,5.358272 -41.12029,42.82384 -42.47418,48.46337 -1.35389,5.63953 20.25386,58.69716 15.84371,62.46384 z"
       transform="translate(46.217507,27.835544)" />
  </g>
</svg>
